<svg version="1.0" xmlns="http://www.w3.org/2000/svg"
 width="200.000000pt" height="200.000000pt" viewBox="0 0 200.000000 200.000000"
 preserveAspectRatio="xMidYMid meet">

<g transform="translate(150,200.000000) scale(0.100000,-0.100000)"
fill="#61DAFB" >
<path d="M1408 1873 c45 -22 100 -89 113 -137 28 -102 -12 -217 -118 -341 -48
-56 -59 -75 -47 -79 19 -7 113 85 163 157 38 56 71 143 71 188 0 84 -59 176
-134 210 -53 24 -96 26 -48 2z"/>
<path d="M758 1510 c56 -29 126 -109 146 -167 48 -140 -22 -329 -178 -483 -31
-30 -56 -58 -56 -62 0 -47 155 96 229 212 106 164 103 324 -7 434 -42 43 -91
70 -142 81 l-35 6 43 -21z"/>
<path d="M702 519 c3 -122 12 -139 70 -139 55 0 68 28 68 145 0 105 0 105 -25
105 -24 0 -24 -1 -27 -107 -2 -88 -6 -108 -18 -108 -12 0 -16 20 -18 108 l-3
107 -25 0 -26 0 4 -111z"/>
<path d="M1170 505 c0 -118 1 -125 20 -125 11 0 20 4 20 10 0 6 11 5 26 -2 37
-17 54 9 54 82 0 73 -17 99 -54 82 -26 -12 -26 -11 -26 33 0 38 -3 45 -20 45
-19 0 -20 -7 -20 -125z m75 -35 c0 -44 -3 -55 -17 -58 -16 -3 -18 5 -18 58 0
53 2 61 18 58 14 -3 17 -14 17 -58z"/>
<path d="M903 550 c-21 -8 -23 -16 -23 -74 0 -45 5 -69 16 -80 32 -33 94 -10
94 35 0 12 -7 19 -20 19 -13 0 -20 -7 -20 -20 0 -11 -7 -20 -15 -20 -12 0 -15
13 -15 60 0 47 3 60 15 60 8 0 15 -9 15 -20 0 -13 7 -20 20 -20 20 0 27 24 12
47 -10 17 -53 24 -79 13z"/>
<path d="M1040 540 c-11 -11 -20 -24 -20 -30 0 -16 37 -11 44 6 3 8 10 12 16
9 19 -12 10 -33 -25 -54 -39 -22 -47 -59 -19 -82 13 -11 19 -10 37 0 15 10 22
11 25 2 2 -6 10 -11 18 -11 11 0 14 18 14 80 0 68 -3 81 -19 90 -29 15 -49 12
-71 -10z m50 -100 c0 -20 -5 -30 -15 -30 -18 0 -20 31 -3 48 17 17 18 16 18
-18z"/>
<path d="M670 211 l0 -121 25 0 c24 0 25 3 25 55 0 30 4 55 10 55 9 0 30 -62
30 -92 0 -12 8 -18 25 -18 29 0 30 2 10 66 -13 42 -13 50 0 64 17 18 20 67 6
89 -6 9 -32 16 -70 19 l-61 4 0 -121z m95 54 c0 -23 -5 -31 -22 -33 -20 -3
-23 1 -23 33 0 32 3 36 23 33 17 -2 22 -10 22 -33z"/>
<path d="M1000 292 c0 -37 -1 -38 -30 -34 -35 5 -43 -14 -38 -103 l3 -60 58
-2 57 -3 0 120 0 120 -25 0 c-22 0 -25 -4 -25 -38z m0 -118 c0 -48 -3 -65 -12
-62 -13 5 -23 89 -14 114 13 35 26 9 26 -52z"/>
<path d="M850 310 c0 -5 9 -10 20 -10 11 0 20 5 20 10 0 6 -9 10 -20 10 -11 0
-20 -4 -20 -10z"/>
<path d="M850 175 c0 -78 2 -85 20 -85 18 0 20 7 20 85 0 78 -2 85 -20 85 -18
0 -20 -7 -20 -85z"/>
<path d="M1096 244 c-11 -10 -16 -34 -16 -69 0 -60 16 -85 55 -85 39 0 55 11
55 36 0 28 -17 31 -36 7 -9 -14 -16 -15 -24 -7 -22 22 -7 49 28 52 27 3 32 7
32 31 0 15 -5 32 -12 39 -17 17 -64 15 -82 -4z m60 -25 c10 -17 -13 -36 -27
-22 -12 12 -4 33 11 33 5 0 12 -5 16 -11z"/>
<path d="M1236 244 c-22 -22 -21 -29 20 -74 20 -21 33 -44 29 -50 -5 -8 -12
-7 -24 4 -24 22 -49 5 -26 -18 19 -19 66 -21 83 -4 21 21 13 46 -25 82 -36 34
-40 61 -5 40 9 -6 23 -9 30 -6 10 3 9 8 -4 23 -21 23 -57 25 -78 3z"/>
</g>
</svg>
